<?xml version="1.0" encoding="utf-8"?>
<!-- Generator: Adobe Illustrator 16.0.0, SVG Export Plug-In . SVG Version: 6.00 Build 0)  -->
<!DOCTYPE svg PUBLIC "-//W3C//DTD SVG 1.1 Tiny//EN" "http://www.w3.org/Graphics/SVG/1.1/DTD/svg11-tiny.dtd">
<svg version="1.1" baseProfile="tiny" id="twitter" xmlns="http://www.w3.org/2000/svg" xmlns:xlink="http://www.w3.org/1999/xlink"
	 x="0px" y="0px" width="42px" height="42px" viewBox="0 0 42 42" xml:space="preserve">
<path fill="#B2B2B2" d="M39.555,9.802c-1.326,0.59-2.756,0.987-4.255,1.167c1.53-0.917,2.705-2.368,3.257-4.099
	c-1.431,0.85-3.016,1.466-4.704,1.799c-1.35-1.439-3.276-2.34-5.406-2.34c-4.092,0-7.408,3.317-7.408,7.409
	c0,0.58,0.066,1.145,0.192,1.688c-6.157-0.309-11.616-3.259-15.27-7.741c-0.638,1.094-1.002,2.366-1.002,3.725
	c0,2.57,1.307,4.839,3.295,6.166c-1.213-0.039-2.356-0.372-3.354-0.926c-0.001,0.031-0.001,0.062-0.001,0.094
	c0,3.588,2.553,6.582,5.942,7.264c-0.622,0.168-1.276,0.26-1.952,0.26c-0.478,0-0.942-0.047-1.394-0.135
	c0.943,2.943,3.679,5.086,6.92,5.145c-2.535,1.988-5.729,3.172-9.2,3.172c-0.598,0-1.188-0.035-1.768-0.104
	c3.279,2.104,7.173,3.328,11.356,3.328c13.627,0,21.077-11.287,21.077-21.077c0-0.322-0.007-0.641-0.021-0.96
	C37.306,12.592,38.562,11.287,39.555,9.802z"/>
</svg>
