<?xml version="1.0" encoding="utf-8"?>
<!-- Generator: Adobe Illustrator 16.0.0, SVG Export Plug-In . SVG Version: 6.00 Build 0)  -->
<!DOCTYPE svg PUBLIC "-//W3C//DTD SVG 1.1 Tiny//EN" "http://www.w3.org/Graphics/SVG/1.1/DTD/svg11-tiny.dtd">
<svg version="1.1" baseProfile="tiny" xmlns="http://www.w3.org/2000/svg" xmlns:xlink="http://www.w3.org/1999/xlink" x="0px"
	 y="0px" width="42px" height="42px" viewBox="0 0 42 42" xml:space="preserve">
<g id="menu" display="none">
	<path display="inline" fill-rule="evenodd" fill="#333333" d="M6,19h30c1.104,0,2,0.896,2,2s-0.896,2-2,2H6c-1.104,0-2-0.896-2-2
		S4.896,19,6,19z"/>
	<path display="inline" fill-rule="evenodd" fill="#333333" d="M6,9h30c1.104,0,2,0.896,2,2s-0.896,2-2,2H6c-1.104,0-2-0.896-2-2
		S4.896,9,6,9z"/>
	<path display="inline" fill-rule="evenodd" fill="#333333" d="M6,29h30c1.104,0,2,0.896,2,2s-0.896,2-2,2H6c-1.104,0-2-0.896-2-2
		S4.896,29,6,29z"/>
</g>
<g id="staroff" display="none">
	<path display="inline" fill="#CDCDCD" stroke="#B5B5B5" stroke-miterlimit="10" d="M37.808,17.415c0-1.121-0.886-2.028-1.994-2.074
		c0-0.004,0-0.008,0.003-0.012h-9.618l-3.226-9.677c-0.002,0-0.004,0-0.006,0c-0.266-0.843-1.045-1.459-1.978-1.459
		c-0.987,0-1.809,0.688-2.024,1.611c-0.002-0.001-0.004,0-0.006-0.001l-3.177,9.527H6.323c-0.016,0-0.031-0.005-0.047-0.005
		c-1.151,0-2.083,0.932-2.083,2.083c0,0.634,0.288,1.192,0.734,1.574c-0.002,0.004-0.003,0.008-0.006,0.011l8.093,6.223
		l-3.013,9.642c-0.122,0.264-0.195,0.557-0.195,0.869c0,1.15,0.933,2.082,2.083,2.082c0.472,0,0.903-0.162,1.253-0.428
		c0.004,0.004,0.008,0.006,0.012,0.008l7.854-6.021l7.576,5.822c0.379,0.383,0.901,0.619,1.482,0.619
		c1.15,0,2.083-0.932,2.083-2.082c0-0.252-0.052-0.49-0.135-0.715c0.007,0,0.011-0.002,0.017-0.004l-3.053-9.753l7.974-6.161
		l-0.002-0.002C37.468,18.711,37.808,18.104,37.808,17.415z"/>
</g>
<g id="staron" display="none">
	<path display="inline" fill="#FFCC00" stroke="#DDAE00" stroke-miterlimit="10" d="M37.808,17.415c0-1.121-0.886-2.028-1.994-2.074
		c0-0.004,0-0.008,0.003-0.012h-9.618l-3.226-9.677c-0.002,0-0.004,0-0.006,0c-0.266-0.843-1.045-1.459-1.978-1.459
		c-0.987,0-1.809,0.688-2.024,1.611c-0.002-0.001-0.004,0-0.006-0.001l-3.177,9.527H6.323c-0.016,0-0.031-0.005-0.047-0.005
		c-1.151,0-2.083,0.932-2.083,2.083c0,0.634,0.288,1.192,0.734,1.574c-0.002,0.004-0.003,0.008-0.006,0.011l8.093,6.223
		l-3.013,9.642c-0.122,0.264-0.195,0.557-0.195,0.869c0,1.15,0.933,2.082,2.083,2.082c0.472,0,0.903-0.162,1.253-0.428
		c0.004,0.004,0.008,0.006,0.012,0.008l7.854-6.021l7.576,5.822c0.379,0.383,0.901,0.619,1.482,0.619
		c1.15,0,2.083-0.932,2.083-2.082c0-0.252-0.052-0.49-0.135-0.715c0.007,0,0.011-0.002,0.017-0.004l-3.053-9.753l7.974-6.161
		l-0.002-0.002C37.468,18.711,37.808,18.104,37.808,17.415z"/>
	<polygon display="inline" fill="#FFFFFF" points="24.02,26.551 30.957,19.613 27.939,16.594 21,23.533 14.062,16.594 
		11.043,19.613 21,29.57 	"/>
</g>
<g id="heartoff" display="none">
	<path display="inline" fill="#CDCDCD" stroke="#B5B5B5" stroke-miterlimit="10" d="M20.98,37.309
		c1.33-1.328,8.919-8.921,13.66-13.663c4.251-4.251,4.159-10.445,0.297-14.289C31.073,5.514,24.824,5.529,20.98,9.395
		C17.138,5.529,10.89,5.514,7.026,9.357c-3.864,3.844-3.954,10.038,0.295,14.289C12.064,28.388,19.654,35.98,20.98,37.309z"/>
</g>
<g id="hearton" display="none">
	<path display="inline" fill="#D90037" stroke="#950000" stroke-miterlimit="10" d="M20.98,37.309
		c1.33-1.328,8.919-8.921,13.66-13.663c4.251-4.251,4.159-10.445,0.297-14.289C31.073,5.514,24.824,5.529,20.98,9.395
		C17.138,5.529,10.89,5.514,7.026,9.357c-3.864,3.844-3.954,10.038,0.295,14.289C12.064,28.388,19.654,35.98,20.98,37.309z"/>
</g>
<g id="arrowdown" display="none">
	<polygon display="inline" fill="#FFFFFF" points="24.02,26.551 30.957,19.613 27.939,16.594 21,23.533 14.062,16.594 
		11.043,19.613 21,29.57 	"/>
</g>
<g id="arrowright" display="none">
	<polygon display="inline" fill="#FFFFFF" points="24.469,17.98 17.531,11.043 14.512,14.061 21.451,21 14.512,27.938 
		17.531,30.957 27.488,21 	"/>
</g>
<g id="arrowleft" display="none">
	<polygon display="inline" fill="#333333" points="16.531,24.019 23.469,30.956 26.488,27.938 19.549,20.999 26.488,14.061 
		23.469,11.042 13.512,20.999 	"/>
</g>
<g id="starmenu" display="none">
	<path display="inline" fill="#333333" d="M30.903,18.881c0-0.662-0.523-1.197-1.179-1.225c0.001-0.002,0.001-0.005,0.002-0.007
		h-5.683l-1.906-5.718c-0.001,0-0.002,0.001-0.003,0.001c-0.157-0.499-0.618-0.863-1.168-0.863c-0.584,0-1.069,0.406-1.196,0.951
		c-0.002,0-0.002,0-0.003,0l-1.877,5.629h-5.588c-0.009,0-0.018-0.003-0.027-0.003c-0.68,0-1.231,0.551-1.231,1.231
		c0,0.373,0.17,0.704,0.434,0.931c-0.001,0.002-0.002,0.004-0.003,0.006l4.781,3.676l-1.78,5.695
		c-0.072,0.157-0.116,0.33-0.116,0.515c0,0.68,0.551,1.23,1.231,1.23c0.279,0,0.534-0.096,0.74-0.253
		c0.002,0.002,0.004,0.004,0.008,0.005l4.641-3.558l4.475,3.439c0.223,0.227,0.533,0.366,0.876,0.366c0.68,0,1.23-0.551,1.23-1.23
		c0-0.148-0.031-0.289-0.079-0.421c0.004-0.001,0.006-0.003,0.009-0.003l-1.803-5.763l4.711-3.641c-0.001,0-0.001-0.001-0.001-0.001
		C30.702,19.647,30.903,19.289,30.903,18.881z"/>
</g>
<g id="twitter" display="none">
	<path display="inline" fill="#B2B2B2" d="M39.555,9.802c-1.326,0.59-2.756,0.987-4.255,1.167c1.53-0.917,2.705-2.368,3.257-4.099
		c-1.431,0.85-3.016,1.466-4.704,1.799c-1.35-1.439-3.276-2.34-5.406-2.34c-4.092,0-7.408,3.317-7.408,7.409
		c0,0.58,0.066,1.145,0.192,1.688c-6.157-0.309-11.616-3.259-15.27-7.741c-0.638,1.094-1.002,2.366-1.002,3.725
		c0,2.57,1.307,4.839,3.295,6.166c-1.213-0.039-2.356-0.372-3.354-0.926c-0.001,0.031-0.001,0.062-0.001,0.094
		c0,3.588,2.553,6.582,5.942,7.264c-0.622,0.168-1.276,0.26-1.952,0.26c-0.478,0-0.942-0.047-1.394-0.135
		c0.943,2.943,3.679,5.086,6.92,5.145c-2.535,1.988-5.729,3.172-9.2,3.172c-0.598,0-1.188-0.035-1.768-0.104
		c3.279,2.104,7.173,3.328,11.356,3.328c13.627,0,21.077-11.287,21.077-21.077c0-0.322-0.007-0.641-0.021-0.96
		C37.306,12.592,38.562,11.287,39.555,9.802z"/>
</g>
<g id="link" display="none">
	<path display="inline" fill="#B2B2B2" d="M34.065,21.955l-4.167,1.359c0.02-0.984-0.116-2.023-0.229-2.547l3.623-1.179
		c1.958-0.644,2.877-3.24,2.042-5.791c-0.683-2.092-2.431-3.609-4.164-3.609c-0.308,0-0.613,0.05-0.894,0.14L18.09,14.303
		c-1.857,0.603-2.791,2.99-2.137,5.441c0.02,0.104,0.049,0.214,0.095,0.344c0.688,2.127,2.401,3.609,4.158,3.609
		c0.306,0,0.61-0.05,0.899-0.14l3.2-1.042c0.109,1.343-0.415,2.61-1.313,2.899l-2.306,0.754l-0.08,0.005
		c-3.12,0.209-5.866-2.027-6.934-5.302l-0.015-0.06c-0.021-0.061-0.04-0.12-0.065-0.21c-0.364-1.238-0.439-2.542-0.22-3.774
		c0.43-2.401,1.902-4.233,3.944-4.897l12.187-3.979c0.529-0.169,1.094-0.26,1.667-0.26c2.826,0,5.513,2.192,6.541,5.333
		C38.964,16.888,37.331,20.892,34.065,21.955z"/>
	<path display="inline" fill="#B2B2B2" d="M28.229,20.621c0.249,1.24,0.809,3.086-0.216,5.299c-0.583,1.702-1.727,3.02-3.439,3.578
		l-3.859,1.258l-8.327,2.717c-0.539,0.174-1.098,0.265-1.672,0.265c-2.826,0-5.512-2.197-6.535-5.337
		c-0.594-1.822-0.574-3.739,0.065-5.397c0.669-1.722,1.972-3.005,3.575-3.529l4.084-1.327c-0.041,0.848,0.03,1.702,0.214,2.535
		c0,0.006,0,0.011,0.005,0.016L8.589,21.84c-1.223,0.405-1.787,1.469-2.007,2.058c-0.434,1.108-0.444,2.471-0.03,3.729
		c0.694,2.126,2.407,3.614,4.164,3.614c0.31,0,0.609-0.05,0.898-0.146l8.042-2.59l1.19-0.364c0.469-0.155,2.41-0.754,2.41-0.754
		c1.02-0.336,1.923-1.209,2.442-2.287c0.483-1.005,0.634-2.217,0.234-3.44c-0.025-0.109-0.055-0.211-0.09-0.324
		c-0.693-2.126-2.406-3.609-4.168-3.609c-0.295,0-0.595,0.049-0.894,0.145l-3.37,1.104c-0.125-1.358,0.389-2.586,1.288-2.876
		l2.601-0.854h0.01c0.12-0.01,0.245-0.014,0.365-0.014c2.825,0,5.516,2.191,6.535,5.326L28.229,20.621z"/>
</g>
<g id="nolove" display="none">
	<path display="inline" d="M21,31.153c0.824-0.826,5.529-5.534,8.473-8.477c2.636-2.635,2.579-6.476,0.183-8.86
		c-2.396-2.384-6.271-2.374-8.655,0.022c-2.383-2.396-6.259-2.407-8.655-0.022c-2.396,2.384-2.453,6.225,0.183,8.86
		C15.47,25.619,20.176,30.327,21,31.153z"/>
	<path display="inline" fill="#D90037" d="M33.765,8.235C30.356,4.827,25.823,2.95,21.002,2.95H20.98
		c-4.818,0-9.346,1.877-12.753,5.286c-3.406,3.408-5.28,7.938-5.277,12.752c-0.003,4.824,1.872,9.359,5.281,12.773
		c3.408,3.41,7.939,5.289,12.759,5.289h0.001c4.824,0,9.36-1.879,12.771-5.289c3.409-3.412,5.287-7.947,5.288-12.772
		C39.049,16.171,37.173,11.642,33.765,8.235z M21.002,6.975c7.732,0,14.024,6.288,14.024,14.015c0,3.057-0.984,5.891-2.651,8.2
		L12.808,9.605c2.365-1.708,5.197-2.631,8.172-2.631L21.002,6.975L21.002,6.975z M11.079,30.916
		c-2.649-2.652-4.106-6.176-4.104-9.928c-0.002-3.071,0.979-5.994,2.796-8.407l19.624,19.641c-2.344,1.76-5.256,2.803-8.404,2.803
		C17.247,35.025,13.726,33.564,11.079,30.916z"/>
</g>
<g id="defaultuser">
	<rect fill="#DCDCDC" width="42" height="42"/>
	<path fill="#C5C5C5" d="M1.614,42v-3.514c0,0,0.229-2.158,2.826-2.827c0,0,4.183-1.527,7.459-2.953
		c1.694-0.736,2.059-1.179,3.768-1.935c0,0,0.179-0.877,0.115-1.401h1.336c0,0,0.306,0.18,0-1.884c0,0-1.629-0.432-1.705-3.714
		c0,0-1.224,0.41-1.299-1.58c-0.051-1.349-1.095-2.521,0.408-3.488l-0.764-2.062c0,0-1.528-8.325,2.863-7.103
		c-1.852-2.215,10.501-4.429,11.303,2.597c0,0,0.573,3.793,0,6.39c0,0,1.805-0.209,0.599,3.259c0,0-0.662,2.496-1.681,1.935
		c0,0,0.166,3.156-1.438,3.691c0,0,0.114,1.681,0.114,1.794l1.528,0.229c0,0-0.23,1.376,0.038,1.527c0,0,1.812,1.24,3.971,1.796
		c4.162,1.067,9.088,2.903,9.088,4.506c0,0,0.421,2.139,0.421,4.736H1.614z"/>
</g>
</svg>
