<?xml version="1.0" encoding="utf-8"?>
<!-- Generator: Adobe Illustrator 16.0.0, SVG Export Plug-In . SVG Version: 6.00 Build 0)  -->
<!DOCTYPE svg PUBLIC "-//W3C//DTD SVG 1.1 Tiny//EN" "http://www.w3.org/Graphics/SVG/1.1/DTD/svg11-tiny.dtd">
<svg version="1.1" baseProfile="tiny" id="Layer_1" xmlns="http://www.w3.org/2000/svg" xmlns:xlink="http://www.w3.org/1999/xlink"
	 x="0px" y="0px" width="42px" height="42px" viewBox="0 0 42 42" xml:space="preserve">
<path fill-rule="evenodd" fill="#333333" d="M6,19h30c1.104,0,2,0.896,2,2s-0.896,2-2,2H6c-1.104,0-2-0.896-2-2S4.896,19,6,19z"/>
<path fill-rule="evenodd" fill="#333333" d="M6,9h30c1.104,0,2,0.896,2,2s-0.896,2-2,2H6c-1.104,0-2-0.896-2-2S4.896,9,6,9z"/>
<path fill-rule="evenodd" fill="#333333" d="M6,29h30c1.104,0,2,0.896,2,2s-0.896,2-2,2H6c-1.104,0-2-0.896-2-2S4.896,29,6,29z"/>
</svg>
