<?xml version="1.0" encoding="utf-8"?>
<!-- Generator: Adobe Illustrator 16.0.0, SVG Export Plug-In . SVG Version: 6.00 Build 0)  -->
<!DOCTYPE svg PUBLIC "-//W3C//DTD SVG 1.1 Tiny//EN" "http://www.w3.org/Graphics/SVG/1.1/DTD/svg11-tiny.dtd">
<svg version="1.1" baseProfile="tiny" id="nolove" xmlns="http://www.w3.org/2000/svg" xmlns:xlink="http://www.w3.org/1999/xlink"
	 x="0px" y="0px" width="42px" height="42px" viewBox="0 0 42 42" xml:space="preserve">
<path d="M21,31.153c0.824-0.826,5.529-5.534,8.473-8.477c2.636-2.635,2.579-6.476,0.183-8.86c-2.396-2.384-6.271-2.374-8.655,0.022
	c-2.383-2.396-6.259-2.407-8.655-0.022c-2.396,2.384-2.453,6.225,0.183,8.86C15.47,25.619,20.176,30.327,21,31.153z"/>
<path fill="#D90037" d="M33.765,8.235C30.356,4.827,25.823,2.95,21.002,2.95H20.98c-4.818,0-9.346,1.877-12.753,5.286
	c-3.406,3.408-5.28,7.938-5.277,12.752c-0.003,4.824,1.872,9.359,5.281,12.773c3.408,3.41,7.939,5.289,12.759,5.289h0.001
	c4.824,0,9.36-1.879,12.771-5.289c3.409-3.412,5.287-7.947,5.288-12.772C39.049,16.171,37.173,11.642,33.765,8.235z M21.002,6.975
	c7.732,0,14.024,6.288,14.024,14.015c0,3.057-0.984,5.891-2.651,8.2L12.808,9.605c2.365-1.708,5.197-2.631,8.172-2.631L21.002,6.975
	L21.002,6.975z M11.079,30.916c-2.649-2.652-4.106-6.176-4.104-9.928c-0.002-3.071,0.979-5.994,2.796-8.407l19.624,19.641
	c-2.344,1.76-5.256,2.803-8.404,2.803C17.247,35.025,13.726,33.564,11.079,30.916z"/>
</svg>
