<?xml version="1.0" encoding="utf-8"?>
<!-- Generator: Adobe Illustrator 16.0.0, SVG Export Plug-In . SVG Version: 6.00 Build 0)  -->
<!DOCTYPE svg PUBLIC "-//W3C//DTD SVG 1.1 Tiny//EN" "http://www.w3.org/Graphics/SVG/1.1/DTD/svg11-tiny.dtd">
<svg version="1.1" baseProfile="tiny" id="link" xmlns="http://www.w3.org/2000/svg" xmlns:xlink="http://www.w3.org/1999/xlink"
	 x="0px" y="0px" width="42px" height="42px" viewBox="0 0 42 42" xml:space="preserve">
<path fill="#B2B2B2" d="M34.065,21.955l-4.167,1.359c0.02-0.984-0.116-2.023-0.229-2.547l3.623-1.179
	c1.958-0.644,2.877-3.24,2.042-5.791c-0.683-2.092-2.431-3.609-4.164-3.609c-0.308,0-0.613,0.05-0.894,0.14L18.09,14.303
	c-1.857,0.603-2.791,2.99-2.137,5.441c0.02,0.104,0.049,0.214,0.095,0.344c0.688,2.127,2.401,3.609,4.158,3.609
	c0.306,0,0.61-0.05,0.899-0.14l3.2-1.042c0.109,1.343-0.415,2.61-1.313,2.899l-2.306,0.754l-0.08,0.005
	c-3.12,0.209-5.866-2.027-6.934-5.302l-0.015-0.06c-0.021-0.061-0.04-0.12-0.065-0.21c-0.364-1.238-0.439-2.542-0.22-3.774
	c0.43-2.401,1.902-4.233,3.944-4.897l12.187-3.979c0.529-0.169,1.094-0.26,1.667-0.26c2.826,0,5.513,2.192,6.541,5.333
	C38.964,16.888,37.331,20.892,34.065,21.955z"/>
<path fill="#B2B2B2" d="M28.229,20.621c0.249,1.24,0.809,3.086-0.216,5.299c-0.583,1.702-1.727,3.02-3.439,3.578l-3.859,1.258
	l-8.327,2.717c-0.539,0.174-1.098,0.265-1.672,0.265c-2.826,0-5.512-2.197-6.535-5.337c-0.594-1.822-0.574-3.739,0.065-5.397
	c0.669-1.722,1.972-3.005,3.575-3.529l4.084-1.327c-0.041,0.848,0.03,1.702,0.214,2.535c0,0.006,0,0.011,0.005,0.016L8.589,21.84
	c-1.223,0.405-1.787,1.469-2.007,2.058c-0.434,1.108-0.444,2.471-0.03,3.729c0.694,2.126,2.407,3.614,4.164,3.614
	c0.31,0,0.609-0.05,0.898-0.146l8.042-2.59l1.19-0.364c0.469-0.155,2.41-0.754,2.41-0.754c1.02-0.336,1.923-1.209,2.442-2.287
	c0.483-1.005,0.634-2.217,0.234-3.44c-0.025-0.109-0.055-0.211-0.09-0.324c-0.693-2.126-2.406-3.609-4.168-3.609
	c-0.295,0-0.595,0.049-0.894,0.145l-3.37,1.104c-0.125-1.358,0.389-2.586,1.288-2.876l2.601-0.854h0.01
	c0.12-0.01,0.245-0.014,0.365-0.014c2.825,0,5.516,2.191,6.535,5.326L28.229,20.621z"/>
</svg>
