<?xml version="1.0" encoding="utf-8"?>
<!-- Generator: Adobe Illustrator 16.0.0, SVG Export Plug-In . SVG Version: 6.00 Build 0)  -->
<!DOCTYPE svg PUBLIC "-//W3C//DTD SVG 1.1 Tiny//EN" "http://www.w3.org/Graphics/SVG/1.1/DTD/svg11-tiny.dtd">
<svg version="1.1" baseProfile="tiny" id="Layer_1" xmlns="http://www.w3.org/2000/svg" xmlns:xlink="http://www.w3.org/1999/xlink"
	 x="0px" y="0px" width="42px" height="42px" viewBox="0 0 42 42" xml:space="preserve">
<path fill="#333333" d="M30.903,18.881c0-0.662-0.523-1.197-1.179-1.225c0.001-0.002,0.001-0.005,0.002-0.007h-5.683l-1.906-5.718
	c-0.001,0-0.002,0.001-0.003,0.001c-0.157-0.499-0.618-0.863-1.168-0.863c-0.584,0-1.069,0.406-1.196,0.951
	c-0.002,0-0.002,0-0.003,0l-1.877,5.629h-5.588c-0.009,0-0.018-0.003-0.027-0.003c-0.68,0-1.231,0.551-1.231,1.231
	c0,0.373,0.17,0.704,0.434,0.931c-0.001,0.002-0.002,0.004-0.003,0.006l4.781,3.676l-1.78,5.695
	c-0.072,0.157-0.116,0.33-0.116,0.515c0,0.68,0.551,1.23,1.231,1.23c0.279,0,0.534-0.096,0.74-0.253
	c0.002,0.002,0.004,0.004,0.008,0.005l4.641-3.558l4.475,3.439c0.223,0.227,0.533,0.366,0.876,0.366c0.68,0,1.23-0.551,1.23-1.23
	c0-0.148-0.031-0.289-0.079-0.421c0.004-0.001,0.006-0.003,0.009-0.003l-1.803-5.763l4.711-3.641c-0.001,0-0.001-0.001-0.001-0.001
	C30.702,19.647,30.903,19.289,30.903,18.881z"/>
</svg>
