<?xml version="1.0" encoding="utf-8"?>
<!-- Generator: Adobe Illustrator 16.0.0, SVG Export Plug-In . SVG Version: 6.00 Build 0)  -->
<!DOCTYPE svg PUBLIC "-//W3C//DTD SVG 1.1 Tiny//EN" "http://www.w3.org/Graphics/SVG/1.1/DTD/svg11-tiny.dtd">
<svg version="1.1" baseProfile="tiny" id="Layer_1" xmlns="http://www.w3.org/2000/svg" xmlns:xlink="http://www.w3.org/1999/xlink"
	 x="0px" y="0px" width="42px" height="42px" viewBox="0 0 42 42" xml:space="preserve">
<g>
	<path fill="#FFCC00" d="M30.067,37.308c-0.426,0-0.826-0.167-1.127-0.471l-7.627-5.867c-0.09-0.069-0.197-0.104-0.305-0.104
		s-0.214,0.034-0.304,0.104l-7.766,5.953c-0.035,0.016-0.068,0.035-0.099,0.059c-0.28,0.214-0.609,0.326-0.95,0.326
		c-0.873,0-1.583-0.71-1.583-1.582c0-0.224,0.05-0.445,0.149-0.659l3.036-9.702c0.062-0.2-0.006-0.418-0.172-0.546l-8.006-6.156
		c-0.018-0.022-0.038-0.042-0.06-0.062c-0.361-0.309-0.56-0.733-0.56-1.194c0-0.873,0.71-1.583,1.582-1.583l9.506,0.005
		c0.215,0,0.406-0.138,0.474-0.342l3.152-9.452c0.02-0.037,0.034-0.077,0.044-0.119c0.168-0.721,0.8-1.225,1.537-1.225
		c0.688,0,1.292,0.446,1.501,1.11c0.008,0.027,0.019,0.052,0.031,0.077l3.202,9.608c0.068,0.204,0.26,0.342,0.475,0.342h9.507
		c0.028,0.006,0.058,0.01,0.088,0.011c0.85,0.035,1.515,0.727,1.515,1.575c0,0.504-0.238,0.968-0.652,1.273
		c-0.018,0.013-7.981,6.17-7.981,6.17c-0.166,0.128-0.234,0.346-0.172,0.545l3.014,9.628c0.003,0.052,0.013,0.104,0.031,0.152
		c0.069,0.189,0.104,0.366,0.104,0.542C31.65,36.598,30.94,37.308,30.067,37.308z"/>
	<path fill="#DDAE00" d="M20.989,5.192c0.469,0,0.881,0.306,1.024,0.76c0.013,0.039,0.027,0.076,0.044,0.113l3.193,9.58
		c0.136,0.408,0.518,0.684,0.948,0.684h9.462c0.037,0.006,0.074,0.009,0.112,0.011c0.58,0.024,1.035,0.497,1.035,1.075
		c0,0.344-0.164,0.661-0.449,0.871c-0.026,0.02-0.051,0.04-0.075,0.062l-7.915,6.116c-0.331,0.256-0.468,0.69-0.343,1.09
		l2.997,9.576c0.01,0.077,0.027,0.154,0.055,0.229c0.05,0.133,0.073,0.253,0.073,0.368c0,0.597-0.486,1.082-1.083,1.082
		c-0.292,0-0.565-0.114-0.771-0.322c-0.032-0.032-0.065-0.062-0.102-0.09l-7.576-5.822c-0.18-0.138-0.395-0.207-0.609-0.207
		c-0.214,0-0.429,0.068-0.608,0.206l-7.728,5.925c-0.047,0.024-0.092,0.054-0.136,0.087c-0.134,0.102-0.356,0.224-0.648,0.224
		c-0.597,0-1.083-0.485-1.083-1.082c0-0.15,0.035-0.302,0.103-0.449c0.018-0.039,0.034-0.08,0.047-0.122l3.013-9.642
		c0.125-0.399-0.013-0.835-0.345-1.091l-7.967-6.126c-0.025-0.026-0.051-0.051-0.079-0.075c-0.144-0.123-0.384-0.392-0.384-0.814
		c0-0.29,0.113-0.562,0.317-0.766c0.195-0.195,0.451-0.306,0.726-0.316c0.031,0.002,0.062,0.004,0.087,0.004h9.458
		c0.43,0,0.812-0.275,0.949-0.684l3.141-9.42c0.029-0.062,0.051-0.127,0.067-0.195C20.054,5.537,20.486,5.192,20.989,5.192
		 M20.989,4.192c-0.987,0-1.809,0.688-2.024,1.611c-0.002-0.001-0.004,0-0.006-0.001l-3.177,9.527H6.323
		c-0.016,0-0.031-0.005-0.047-0.005c0,0,0,0-0.001,0c-1.15,0-2.082,0.933-2.082,2.083c0,0.634,0.288,1.192,0.734,1.574
		c-0.002,0.004-0.003,0.008-0.006,0.011l8.093,6.223l-3.013,9.642c-0.122,0.264-0.195,0.557-0.195,0.869
		c0,1.15,0.933,2.082,2.083,2.082c0.472,0,0.903-0.162,1.253-0.428c0.004,0.004,0.008,0.006,0.012,0.008l7.854-6.021l7.576,5.822
		c0.379,0.383,0.901,0.619,1.482,0.619c1.15,0,2.083-0.932,2.083-2.082c0-0.252-0.052-0.49-0.135-0.715
		c0.007,0,0.011-0.002,0.017-0.004l-3.053-9.753l7.974-6.161l-0.002-0.002c0.517-0.38,0.856-0.987,0.856-1.676
		c0-1.121-0.886-2.028-1.994-2.074c0-0.004,0-0.008,0.003-0.012h-9.618l-3.226-9.677c-0.002,0-0.004,0-0.006,0
		C22.701,4.809,21.922,4.192,20.989,4.192L20.989,4.192z M35.816,15.329h0.005H35.816z"/>
</g>
</svg>
